<?xml version="1.0" encoding="UTF-8" standalone="no"?>
<svg
   height="16px"
   viewBox="0 0 16 16"
   width="16px"
   version="1.1"
   id="svg2"
   sodipodi:docname="uncheck-symbolic.svg"
   inkscape:version="1.3.2 (091e20ef0f, 2023-11-25)"
   xmlns:inkscape="http://www.inkscape.org/namespaces/inkscape"
   xmlns:sodipodi="http://sodipodi.sourceforge.net/DTD/sodipodi-0.dtd"
   xmlns="http://www.w3.org/2000/svg"
   xmlns:svg="http://www.w3.org/2000/svg">
  <defs
     id="defs2" />
  <sodipodi:namedview
     id="namedview2"
     pagecolor="#ffffff"
     bordercolor="#000000"
     borderopacity="0.25"
     inkscape:showpageshadow="2"
     inkscape:pageopacity="0.0"
     inkscape:pagecheckerboard="0"
     inkscape:deskcolor="#d1d1d1"
     inkscape:zoom="25.15625"
     inkscape:cx="-1.152795"
     inkscape:cy="9.1229814"
     inkscape:window-width="1920"
     inkscape:window-height="1011"
     inkscape:window-x="0"
     inkscape:window-y="0"
     inkscape:window-maximized="1"
     inkscape:current-layer="svg2" />
  <g
     fill="#222222"
     id="g2">
    <path
       d="m 9.492188 0.140625 c -0.851563 -0.1640625 -1.722657 -0.1835938 -2.574219 -0.0664062 c -1.699219 0.2304692 -3.328125 1.0078122 -4.601563 2.2929692 c -2.546875 2.566406 -3.050781 6.539062 -1.230468 9.664062 c 1.824218 3.121094 5.53125 4.636719 9.019531 3.683594 c 3.488281 -0.949219 5.90625 -4.132813 5.890625 -7.75 c 0 -0.550782 -0.453125 -1 -1.003906 -0.996094 c -0.550782 0.003906 -0.996094 0.453125 -0.996094 1.003906 c 0.015625 2.722656 -1.792969 5.097656 -4.417969 5.816406 c -2.625 0.714844 -5.390625 -0.417968 -6.761719 -2.765624 c -1.371094 -2.351563 -0.996094 -5.316407 0.921875 -7.25 c 1.914063 -1.929688 4.875 -2.335938 7.238281 -0.984376 c 0.476563 0.273438 1.089844 0.109376 1.363282 -0.371093 c 0.273437 -0.480469 0.109375 -1.089844 -0.371094 -1.367188 c -0.785156 -0.445312 -1.621094 -0.75 -2.476562 -0.910156 z m 0 0"
       id="path1" />
  </g>
</svg>
