<?xml version="1.0" encoding="UTF-8" standalone="no"?>
<svg
   width="128"
   height="128"
   viewBox="0 0 128 128"
   fill="none"
   version="1.1"
   id="svg75"
   sodipodi:docname="org.altlinux.Foldy.svg"
   inkscape:version="1.3.2 (091e20ef0f, 2023-11-25)"
   xmlns:inkscape="http://www.inkscape.org/namespaces/inkscape"
   xmlns:sodipodi="http://sodipodi.sourceforge.net/DTD/sodipodi-0.dtd"
   xmlns="http://www.w3.org/2000/svg"
   xmlns:svg="http://www.w3.org/2000/svg">
  <sodipodi:namedview
     id="namedview75"
     pagecolor="#ffffff"
     bordercolor="#000000"
     borderopacity="0.25"
     inkscape:showpageshadow="2"
     inkscape:pageopacity="0.0"
     inkscape:pagecheckerboard="0"
     inkscape:deskcolor="#d1d1d1"
     inkscape:zoom="4.0996877"
     inkscape:cx="48.906164"
     inkscape:cy="70.859055"
     inkscape:window-width="1920"
     inkscape:window-height="1011"
     inkscape:window-x="0"
     inkscape:window-y="0"
     inkscape:window-maximized="1"
     inkscape:current-layer="svg75" />
  <g
     id="g75"
     transform="matrix(0.39744983,0,0,0.39744983,3.0659243,10.755354)">
    <path
       d="m 54.398112,52.542179 c 0,-6.217943 5.040619,-11.258562 11.258562,-11.258562 h 48.360346 c 7.18859,0 14.13432,2.602497 19.55291,7.326429 l 14.55571,12.689364 c 5.41858,4.723931 12.36431,7.326428 19.5529,7.326428 h 97.41551 c 6.21794,0 11.25856,5.040623 11.25856,11.258563 V 229.06034 c 0,8.88301 -7.20065,16.08366 -16.08366,16.08366 H 54.398112 Z"
       fill="url(#paint0_linear_214_578)"
       id="path1"
       style="fill:url(#paint0_linear_214_578);stroke-width:0.804183" />
    <path
       d="m 54.398112,52.542179 c 0,-6.217943 5.040619,-11.258562 11.258562,-11.258562 h 48.360346 c 7.18859,0 14.13432,2.602497 19.55291,7.326429 l 14.55571,12.689364 c 5.41858,4.723931 12.36431,7.326428 19.5529,7.326428 h 97.41551 c 6.21794,0 11.25856,5.040623 11.25856,11.258563 V 229.06034 c 0,8.88301 -7.20065,16.08366 -16.08366,16.08366 H 54.398112 Z"
       fill="url(#paint1_radial_214_578)"
       fill-opacity="0.6"
       id="path2"
       style="fill:url(#paint1_radial_214_578);stroke-width:0.804183" />
    <path
       d="m 54.398112,52.542179 c 0,-6.217943 5.040619,-11.258562 11.258562,-11.258562 h 48.360346 c 7.18859,0 14.13432,2.602497 19.55291,7.326429 l 14.55571,12.689364 c 5.41858,4.723931 12.36431,7.326428 19.5529,7.326428 h 97.41551 c 6.21794,0 11.25856,5.040623 11.25856,11.258563 V 229.06034 c 0,8.88301 -7.20065,16.08366 -16.08366,16.08366 H 54.398112 Z"
       fill="#000000"
       fill-opacity="0.2"
       id="path3"
       style="stroke-width:0.804183" />
    <path
       d="m 51.985563,52.542179 c 0,-6.217943 5.040619,-11.258562 11.258562,-11.258562 h 48.360345 c 7.18859,0 14.13432,2.602497 19.55291,7.326429 l 14.55571,12.689364 c 5.41858,4.723931 12.36431,7.326428 19.5529,7.326428 h 97.41551 c 6.21795,0 11.25856,5.040623 11.25856,11.258563 V 229.06034 c 0,8.88301 -7.20065,16.08366 -16.08366,16.08366 H 51.985563 Z"
       fill="url(#paint2_linear_214_578)"
       id="path4"
       style="fill:url(#paint2_linear_214_578);stroke-width:0.804183" />
    <path
       d="m 51.985563,52.542179 c 0,-6.217943 5.040619,-11.258562 11.258562,-11.258562 h 48.360345 c 7.18859,0 14.13432,2.602497 19.55291,7.326429 l 14.55571,12.689364 c 5.41858,4.723931 12.36431,7.326428 19.5529,7.326428 h 97.41551 c 6.21795,0 11.25856,5.040623 11.25856,11.258563 V 229.06034 c 0,8.88301 -7.20065,16.08366 -16.08366,16.08366 H 51.985563 Z"
       fill="url(#paint3_radial_214_578)"
       fill-opacity="0.6"
       id="path5"
       style="fill:url(#paint3_radial_214_578);stroke-width:0.804183" />
    <path
       d="M 38.815861,68.061382 C 37.206514,62.055342 40.770749,55.88187 46.77687,54.272539 l 22.72026,-6.087906 28.539971,-7.647298 c 6.006119,-1.60925 12.179589,1.954969 13.788519,7.96101 l 38.08932,142.150995 c 1.72417,6.43508 -2.09409,13.04948 -8.52916,14.77365 l -61.358678,16.44072 z"
       fill="url(#paint4_linear_214_578)"
       id="path6"
       style="fill:url(#paint4_linear_214_578);stroke-width:0.804183" />
    <path
       d="M 38.815861,68.061382 C 37.206514,62.055342 40.770749,55.88187 46.77687,54.272539 l 22.72026,-6.087906 28.539971,-7.647298 c 6.006119,-1.60925 12.179589,1.954969 13.788519,7.96101 l 38.08932,142.150995 c 1.72417,6.43508 -2.09409,13.04948 -8.52916,14.77365 l -61.358678,16.44072 z"
       fill="#000000"
       fill-opacity="0.2"
       id="path7"
       style="stroke-width:0.804183" />
    <path
       d="m 196.80283,48.941851 c 1.60917,-6.00612 7.78289,-9.57034 13.78852,-7.961009 l 22.72059,6.087826 28.53965,7.647298 c 6.00644,1.609331 9.57058,7.782802 7.96141,13.788843 L 231.72367,210.65581 c -1.72416,6.43507 -8.33857,10.25414 -14.77364,8.52997 l -61.35916,-16.44152 z"
       fill="url(#paint5_linear_214_578)"
       id="path8"
       style="fill:url(#paint5_linear_214_578);stroke-width:0.804183" />
    <path
       d="m 196.80283,48.941851 c 1.60917,-6.00612 7.78289,-9.57034 13.78852,-7.961009 l 22.72059,6.087826 28.53965,7.647298 c 6.00644,1.609331 9.57058,7.782802 7.96141,13.788843 L 231.72367,210.65581 c -1.72416,6.43507 -8.33857,10.25414 -14.77364,8.52997 l -61.35916,-16.44152 z"
       fill="#000000"
       fill-opacity="0.2"
       id="path9"
       style="stroke-width:0.804183" />
    <path
       d="m 195.19447,48.137669 c 1.60917,-6.006121 7.78288,-9.570341 13.78852,-7.96101 l 22.72058,6.087826 28.53965,7.647298 c 6.00644,1.609331 9.57058,7.782802 7.96141,13.788843 L 230.11531,209.85163 c -1.72417,6.43507 -8.33857,10.25413 -14.77365,8.52996 L 153.9825,201.94007 Z"
       fill="url(#paint6_linear_214_578)"
       id="path10"
       style="fill:url(#paint6_linear_214_578);stroke-width:0.804183" />
    <rect
       x="221.91069"
       y="-1.0161744"
       width="35.575848"
       height="44.739353"
       rx="4.312222"
       transform="rotate(15)"
       fill="url(#paint7_linear_214_578)"
       id="rect10"
       style="fill:url(#paint7_linear_214_578);stroke-width:0.804183" />
    <path
       d="m 213.49606,60.618427 c 0.61681,-2.300445 2.98111,-3.665626 5.28188,-3.04922 l 26.03301,6.975563 c 2.29996,0.616407 3.66546,2.980946 3.04866,5.281391 l -0.83716,3.12393 -34.36354,-9.207654 z"
       fill="#3385e9"
       id="path11"
       style="stroke-width:0.804183" />
    <rect
       x="148.38329"
       y="185.67433"
       width="26.026257"
       height="7.5515761"
       transform="rotate(-30)"
       fill="#fb8f25"
       id="rect11"
       style="stroke-width:0.804183" />
    <path
       d="m 219.94642,91.810031 1.39445,-5.20282 3.80861,6.59695 z"
       fill="#e5d7c4"
       id="path12"
       style="stroke-width:0.804183" />
    <path
       fill-rule="evenodd"
       clip-rule="evenodd"
       d="m 220.64525,89.211471 -0.69481,2.60572 2.59992,0.69344 z"
       fill="#313131"
       id="path13"
       style="stroke-width:0.804183" />
    <path
       d="m 243.33045,73.911331 1.09932,-0.63474 c 1.82147,-1.05179 4.15119,-0.42767 5.20306,1.39405 v 0 c 1.05187,1.82172 0.42782,4.15103 -1.39445,5.20282 l -1.09932,0.63474 z"
       fill="#cf6365"
       id="path14"
       style="stroke-width:0.804183" />
    <path
       d="m 37.207471,68.061382 c -1.609323,-6.00604 1.954912,-12.179512 7.961033,-13.788843 l 22.72026,-6.087906 28.539971,-7.647298 c 6.006125,-1.60925 12.179595,1.954969 13.788925,7.96101 l 38.08892,142.150995 c 1.72417,6.43508 -2.09409,13.04948 -8.52917,14.77365 l -61.358674,16.44072 z"
       fill="url(#paint8_linear_214_578)"
       id="path15"
       style="fill:url(#paint8_linear_214_578);stroke-width:0.804183" />
    <path
       fill-rule="evenodd"
       clip-rule="evenodd"
       d="m 70.531953,70.659461 c -0.344834,-1.28702 0.418899,-2.6099 1.705913,-2.954734 l 5.859518,-1.570087 c 1.287015,-0.344834 2.609896,0.418899 2.954729,1.705913 l 0.608365,2.270208 c 1.674631,0.006 3.320873,0.23128 4.903023,0.6538 l 1.098755,-1.9031 c 0.666185,-1.153839 2.1417,-1.549256 3.295542,-0.88299 l 5.253567,3.03306 c 1.153841,0.66626 1.549258,2.1417 0.882993,3.29562 l -1.212548,2.10028 c 0.926258,1.00933 1.751511,2.12385 2.45493,3.33149 l 2.27061,-0.60836 c 1.28702,-0.34484 2.6099,0.4189 2.95473,1.70591 l 1.57001,5.85952 c 0.34491,1.28701 -0.4189,2.60989 -1.70592,2.95481 l -2.46257,0.65983 c -0.0595,1.46193 -0.28492,2.89804 -0.66232,4.28429 l 2.63756,1.5228 c 1.15384,0.66618 1.54926,2.1417 0.88299,3.29562 l -3.03306,5.253569 c -0.66626,1.154 -2.141696,1.54885 -3.295618,0.88299 l -2.880503,-1.66305 c -0.990754,0.90068 -2.081547,1.70406 -3.261284,2.39083 l 0.784561,2.92803 c 0.344914,1.2875 -0.418899,2.61038 -1.705913,2.95457 l -5.859519,1.57057 c -1.287014,0.345 -2.609895,-0.41898 -2.954729,-1.70567 l -0.836028,-3.12023 c -1.154566,-0.0474 -2.293048,-0.19783 -3.403544,-0.44471 l -1.694011,2.93446 c -0.666266,1.1532 -2.1417,1.54886 -3.295623,0.88299 l -5.253486,-3.03337 C 65.979151,108.57845 65.583815,107.10278 66.25,105.94877 l 1.580139,-2.73663 c -0.993327,-0.99526 -1.88404,-2.10399 -2.649542,-3.313479 l -3.119747,0.835949 c -1.287014,0.34484 -2.609895,-0.41898 -2.954729,-1.705989 l -1.570087,-5.85952 c -0.344834,-1.28701 0.418979,-2.6099 1.705994,-2.95473 l 2.927628,-0.78448 c 0.0052,-1.36526 0.155609,-2.71179 0.439968,-4.01995 l -2.203622,-1.2723 c -1.153922,-0.66618 -1.549258,-2.1417 -0.883073,-3.29562 l 3.033137,-5.25349 c 0.666185,-1.15392 2.1417,-1.54925 3.295542,-0.88307 l 1.960678,1.13205 c 1.011904,-1.02003 2.142987,-1.93342 3.379338,-2.71589 z m 13.597125,28.39023 c 5.265469,-1.41094 8.390202,-6.82317 6.979344,-12.08856 -1.410859,-5.26547 -6.823091,-8.39028 -12.088559,-6.97934 -5.265469,1.41085 -8.390202,6.82309 -6.979344,12.08855 1.410859,5.26547 6.823091,8.390209 12.088559,6.97935 z"
       fill="url(#paint9_linear_214_578)"
       id="path16"
       style="fill:url(#paint9_linear_214_578);stroke-width:0.804183" />
    <path
       d="m 115.38172,34.04597 c 0,-6.217934 5.04142,-11.258561 11.25856,-11.258561 h 23.52235 29.54649 c 6.21794,0 11.25856,5.040627 11.25856,11.258561 v 147.16548 c 0,6.66186 -5.40089,12.06275 -12.06274,12.06275 h -63.52322 z"
       fill="url(#paint10_linear_214_578)"
       id="path17"
       style="fill:url(#paint10_linear_214_578);stroke-width:0.804183" />
    <path
       d="m 115.38172,34.04597 c 0,-6.217934 5.04142,-11.258561 11.25856,-11.258561 h 23.52235 29.54649 c 6.21794,0 11.25856,5.040627 11.25856,11.258561 v 147.16548 c 0,6.66186 -5.40089,12.06275 -12.06274,12.06275 h -63.52322 z"
       fill="#000000"
       fill-opacity="0.2"
       id="path18"
       style="stroke-width:0.804183" />
    <path
       d="m 113.77335,34.04597 c 0,-6.217934 5.04143,-11.258561 11.25857,-11.258561 h 23.52235 29.54648 c 6.21795,0 11.25857,5.040627 11.25857,11.258561 v 147.16548 c 0,6.66186 -5.4009,12.06275 -12.06275,12.06275 h -63.52322 z"
       fill="url(#paint11_linear_214_578)"
       id="path19"
       style="fill:url(#paint11_linear_214_578);stroke-width:0.804183" />
    <path
       fill-rule="evenodd"
       clip-rule="evenodd"
       d="m 141.91332,37.282003 c 0,-3.235791 2.62325,-5.859036 5.85928,-5.859036 3.23523,0 5.85847,2.623245 5.85847,5.859036 v 5.859035 h 12.36914 c 1.79816,0 3.25534,1.45726 3.25534,3.255011 v 11.718153 h 5.85927 c 3.23523,0 5.85848,2.623245 5.85848,5.859036 0,3.235791 -2.62325,5.859033 -5.85848,5.859033 h -5.85927 v 13.02013 c 0,1.79767 -1.45718,3.25501 -3.25534,3.25501 h -12.36914 v -5.85904 c 0,-3.23579 -2.62324,-5.85903 -5.85847,-5.85903 -3.23603,0 -5.85928,2.62324 -5.85928,5.85903 v 5.85904 h -12.36913 c -1.79735,0 -3.25534,-1.45734 -3.25534,-3.25501 v -13.67111 h 5.85928 c 3.23603,0 5.85928,-2.623249 5.85928,-5.85912 0,-3.235791 -2.62325,-5.859036 -5.85928,-5.859036 h -5.85928 V 46.396049 c 0,-1.797751 1.45799,-3.255011 3.25534,-3.255011 h 12.36913 z"
       fill="url(#paint12_linear_214_578)"
       id="path20"
       style="fill:url(#paint12_linear_214_578);stroke-width:0.804183" />
    <path
       d="m 254.63967,90.338781 c 0,-6.21795 -5.04062,-11.25856 -11.25856,-11.25856 h -48.36035 c -7.18859,0 -14.13432,2.60249 -19.5529,7.32642 l -14.55571,12.68937 c -5.41859,4.724089 -12.36432,7.326429 -19.55291,7.326429 H 43.943894 c -6.21795,0 -11.258577,5.04062 -11.258585,11.25856 l -1.29e-4,116.20444 c 0,6.21794 5.040627,11.25856 11.258553,11.25856 H 260.67105 v 0 c -3.33093,0 -6.03138,-2.70045 -6.03138,-6.03137 z"
       fill="url(#paint13_linear_214_578)"
       id="path21"
       style="fill:url(#paint13_linear_214_578);stroke-width:0.804183" />
    <path
       d="m 254.63967,90.338781 c 0,-6.21795 -5.04062,-11.25856 -11.25856,-11.25856 h -48.36035 c -7.18859,0 -14.13432,2.60249 -19.5529,7.32642 l -14.55571,12.68937 c -5.41859,4.724089 -12.36432,7.326429 -19.55291,7.326429 H 43.943894 c -6.21795,0 -11.258577,5.04062 -11.258585,11.25856 l -1.29e-4,116.20444 c 0,6.21794 5.040627,11.25856 11.258553,11.25856 H 260.67105 v 0 c -3.33093,0 -6.03138,-2.70045 -6.03138,-6.03137 z"
       fill="url(#paint14_radial_214_578)"
       fill-opacity="0.6"
       id="path22"
       style="fill:url(#paint14_radial_214_578);stroke-width:0.804183" />
    <path
       d="m 254.63967,90.338781 c 0,-6.21795 -5.04062,-11.25856 -11.25856,-11.25856 h -48.36035 c -7.18859,0 -14.13432,2.60249 -19.5529,7.32642 l -14.55571,12.68937 c -5.41859,4.724089 -12.36432,7.326429 -19.55291,7.326429 H 43.943894 c -6.21795,0 -11.258577,5.04062 -11.258585,11.25856 l -1.29e-4,116.20444 c 0,6.21794 5.040627,11.25856 11.258553,11.25856 H 260.67105 v 0 c -3.33093,0 -6.03138,-2.70045 -6.03138,-6.03137 z"
       fill="#000000"
       fill-opacity="0.2"
       id="path23"
       style="stroke-width:0.804183" />
    <path
       d="m 252.22712,90.338781 c 0,-6.21795 -5.04062,-11.25856 -11.25856,-11.25856 h -48.36035 c -7.18859,0 -14.13432,2.60249 -19.5529,7.32642 l -14.55571,12.68937 c -5.41859,4.724089 -12.36432,7.326429 -19.55291,7.326429 H 41.531345 c -6.21795,0 -11.25858,5.04062 -11.258587,11.25856 l -1.23e-4,116.20444 c -7e-6,6.21794 5.040623,11.25856 11.25855,11.25856 H 258.2585 v 0 c -3.33093,0 -6.03138,-2.70045 -6.03138,-6.03137 z"
       fill="url(#paint15_linear_214_578)"
       id="path24"
       style="fill:url(#paint15_linear_214_578);stroke-width:0.804183" />
    <path
       d="m 252.22712,90.338781 c 0,-6.21795 -5.04062,-11.25856 -11.25856,-11.25856 h -48.36035 c -7.18859,0 -14.13432,2.60249 -19.5529,7.32642 l -14.55571,12.68937 c -5.41859,4.724089 -12.36432,7.326429 -19.55291,7.326429 H 41.531345 c -6.21795,0 -11.25858,5.04062 -11.258587,11.25856 l -1.23e-4,116.20444 c -7e-6,6.21794 5.040623,11.25856 11.25855,11.25856 H 258.2585 v 0 c -3.33093,0 -6.03138,-2.70045 -6.03138,-6.03137 z"
       fill="url(#paint16_radial_214_578)"
       fill-opacity="0.6"
       id="path25"
       style="fill:url(#paint16_radial_214_578);stroke-width:0.804183" />
    <circle
       cx="185.07784"
       cy="182.41772"
       r="20.506666"
       fill="#bddbf6"
       id="circle25"
       style="stroke-width:0.804183" />
    <circle
       cx="89.380074"
       cy="182.41772"
       r="20.506666"
       fill="#bddbf6"
       id="circle26"
       style="stroke-width:0.804183" />
    <g
       filter="url(#filter0_i_214_578)"
       id="g26"
       transform="matrix(0.80418297,0,0,0.80418297,30.272623,22.787409)">
      <rect
         x="82"
         y="140"
         width="23"
         height="59"
         rx="11.5"
         fill="url(#paint17_radial_214_578)"
         id="rect26"
         style="fill:url(#paint17_radial_214_578)" />
    </g>
    <g
       filter="url(#filter1_i_214_578)"
       id="g28"
       transform="matrix(0.80418297,0,0,0.80418297,30.272623,22.787409)">
      <rect
         x="164"
         y="140"
         width="23"
         height="59"
         rx="11.5"
         fill="#272646"
         id="rect27" />
      <rect
         x="164"
         y="140"
         width="23"
         height="59"
         rx="11.5"
         fill="url(#paint18_radial_214_578)"
         id="rect28"
         style="fill:url(#paint18_radial_214_578)" />
    </g>
    <g
       filter="url(#filter2_i_214_578)"
       id="g29"
       transform="matrix(0.80418297,0,0,0.80418297,30.272623,22.787409)">
      <path
         d="m 106.5,217 c 8.5,18 44.5,18 53,0"
         stroke="#272646"
         stroke-width="15"
         stroke-linecap="round"
         id="path28" />
      <path
         d="m 106.5,217 c 8.5,18 44.5,18 53,0"
         stroke="url(#paint19_radial_214_578)"
         stroke-width="15"
         stroke-linecap="round"
         id="path29"
         style="stroke:url(#paint19_radial_214_578)" />
    </g>
  </g>
  <defs
     id="defs75">
    <filter
       id="filter0_i_214_578"
       x="82"
       y="140"
       width="23"
       height="59"
       filterUnits="userSpaceOnUse"
       color-interpolation-filters="sRGB">
      <feFlood
         flood-opacity="0"
         result="BackgroundImageFix"
         id="feFlood29" />
      <feBlend
         mode="normal"
         in="SourceGraphic"
         in2="BackgroundImageFix"
         result="shape"
         id="feBlend29" />
      <feColorMatrix
         in="SourceAlpha"
         type="matrix"
         values="0 0 0 0 0 0 0 0 0 0 0 0 0 0 0 0 0 0 127 0"
         result="hardAlpha"
         id="feColorMatrix29" />
      <feOffset
         dy="2"
         id="feOffset29" />
      <feComposite
         in2="hardAlpha"
         operator="arithmetic"
         k2="-1"
         k3="1"
         id="feComposite29"
         k1="0"
         k4="0" />
      <feColorMatrix
         type="matrix"
         values="0 0 0 0 0 0 0 0 0 0 0 0 0 0 0 0 0 0 0.14 0"
         id="feColorMatrix30" />
      <feBlend
         mode="normal"
         in2="shape"
         result="effect1_innerShadow_214_578"
         id="feBlend30" />
    </filter>
    <filter
       id="filter1_i_214_578"
       x="164"
       y="140"
       width="23"
       height="59"
       filterUnits="userSpaceOnUse"
       color-interpolation-filters="sRGB">
      <feFlood
         flood-opacity="0"
         result="BackgroundImageFix"
         id="feFlood30" />
      <feBlend
         mode="normal"
         in="SourceGraphic"
         in2="BackgroundImageFix"
         result="shape"
         id="feBlend31" />
      <feColorMatrix
         in="SourceAlpha"
         type="matrix"
         values="0 0 0 0 0 0 0 0 0 0 0 0 0 0 0 0 0 0 127 0"
         result="hardAlpha"
         id="feColorMatrix31" />
      <feOffset
         dy="2"
         id="feOffset31" />
      <feComposite
         in2="hardAlpha"
         operator="arithmetic"
         k2="-1"
         k3="1"
         id="feComposite31"
         k1="0"
         k4="0" />
      <feColorMatrix
         type="matrix"
         values="0 0 0 0 0 0 0 0 0 0 0 0 0 0 0 0 0 0 0.14 0"
         id="feColorMatrix32" />
      <feBlend
         mode="normal"
         in2="shape"
         result="effect1_innerShadow_214_578"
         id="feBlend32" />
    </filter>
    <filter
       id="filter2_i_214_578"
       x="98.998001"
       y="209.498"
       width="68.003899"
       height="28.501699"
       filterUnits="userSpaceOnUse"
       color-interpolation-filters="sRGB">
      <feFlood
         flood-opacity="0"
         result="BackgroundImageFix"
         id="feFlood32" />
      <feBlend
         mode="normal"
         in="SourceGraphic"
         in2="BackgroundImageFix"
         result="shape"
         id="feBlend33" />
      <feColorMatrix
         in="SourceAlpha"
         type="matrix"
         values="0 0 0 0 0 0 0 0 0 0 0 0 0 0 0 0 0 0 127 0"
         result="hardAlpha"
         id="feColorMatrix33" />
      <feOffset
         dy="2"
         id="feOffset33" />
      <feComposite
         in2="hardAlpha"
         operator="arithmetic"
         k2="-1"
         k3="1"
         id="feComposite33"
         k1="0"
         k4="0" />
      <feColorMatrix
         type="matrix"
         values="0 0 0 0 0 0 0 0 0 0 0 0 0 0 0 0 0 0 0.14 0"
         id="feColorMatrix34" />
      <feBlend
         mode="normal"
         in2="shape"
         result="effect1_innerShadow_214_578"
         id="feBlend34" />
    </filter>
    <linearGradient
       id="paint0_linear_214_578"
       x1="168"
       y1="17"
       x2="168"
       y2="276.5"
       gradientUnits="userSpaceOnUse"
       gradientTransform="matrix(0.80418297,0,0,0.80418297,30.272623,22.787409)">
      <stop
         stop-color="#428BE6"
         id="stop34" />
      <stop
         offset="0.85062"
         stop-color="#2D66AC"
         id="stop35" />
    </linearGradient>
    <radialGradient
       id="paint1_radial_214_578"
       cx="0"
       cy="0"
       r="1"
       gradientUnits="userSpaceOnUse"
       gradientTransform="matrix(41.013413,76.799684,-145.84953,77.888171,99.030267,17.158128)">
      <stop
         stop-color="#DDEFFF"
         id="stop36" />
      <stop
         offset="1"
         stop-color="#DDEFFF"
         stop-opacity="0"
         id="stop37" />
    </radialGradient>
    <linearGradient
       id="paint2_linear_214_578"
       x1="165"
       y1="17"
       x2="165"
       y2="276.5"
       gradientUnits="userSpaceOnUse"
       gradientTransform="matrix(0.80418297,0,0,0.80418297,30.272623,22.787409)">
      <stop
         stop-color="#428BE6"
         id="stop38" />
      <stop
         offset="0.85062"
         stop-color="#2D66AC"
         id="stop39" />
    </linearGradient>
    <radialGradient
       id="paint3_radial_214_578"
       cx="0"
       cy="0"
       r="1"
       gradientUnits="userSpaceOnUse"
       gradientTransform="matrix(41.013413,76.799684,-145.84953,77.888171,96.617718,17.158128)">
      <stop
         stop-color="#DDEFFF"
         id="stop40" />
      <stop
         offset="1"
         stop-color="#DDEFFF"
         stop-opacity="0"
         id="stop41" />
    </radialGradient>
    <linearGradient
       id="paint4_linear_214_578"
       x1="63.5"
       y1="83.5"
       x2="81.960999"
       y2="140.95799"
       gradientUnits="userSpaceOnUse"
       gradientTransform="matrix(0.80418297,0,0,0.80418297,30.272623,22.787409)">
      <stop
         stop-color="white"
         id="stop42" />
      <stop
         offset="1"
         stop-color="#CACACA"
         id="stop43" />
    </linearGradient>
    <linearGradient
       id="paint5_linear_214_578"
       x1="243"
       y1="63.5"
       x2="226.53"
       y2="141.509"
       gradientUnits="userSpaceOnUse"
       gradientTransform="matrix(0.80418297,0,0,0.80418297,30.272623,22.787409)">
      <stop
         stop-color="white"
         id="stop44" />
      <stop
         offset="1"
         stop-color="#CACACA"
         id="stop45" />
    </linearGradient>
    <linearGradient
       id="paint6_linear_214_578"
       x1="241"
       y1="62.5"
       x2="224.53"
       y2="140.509"
       gradientUnits="userSpaceOnUse"
       gradientTransform="matrix(0.80418297,0,0,0.80418297,30.272623,22.787409)">
      <stop
         stop-color="white"
         id="stop46" />
      <stop
         offset="1"
         stop-color="#CACACA"
         id="stop47" />
    </linearGradient>
    <linearGradient
       id="paint7_linear_214_578"
       x1="241.42599"
       y1="60.4767"
       x2="251.345"
       y2="97.496597"
       gradientUnits="userSpaceOnUse"
       gradientTransform="matrix(0.80418297,0,0,0.80418297,37.571041,-34.681929)">
      <stop
         stop-color="#F6F5F1"
         id="stop48" />
      <stop
         offset="1"
         stop-color="#908F8D"
         id="stop49" />
    </linearGradient>
    <linearGradient
       id="paint8_linear_214_578"
       x1="61.5"
       y1="83.5"
       x2="79.960999"
       y2="140.95799"
       gradientUnits="userSpaceOnUse"
       gradientTransform="matrix(0.80418297,0,0,0.80418297,30.272623,22.787409)">
      <stop
         stop-color="white"
         id="stop50" />
      <stop
         offset="1"
         stop-color="#CACACA"
         id="stop51" />
    </linearGradient>
    <linearGradient
       id="paint9_linear_214_578"
       x1="55.827"
       y1="54.878399"
       x2="71.162598"
       y2="112.112"
       gradientUnits="userSpaceOnUse"
       gradientTransform="matrix(0.80418297,0,0,0.80418297,30.272623,22.787409)">
      <stop
         stop-color="#A9A9A9"
         id="stop52" />
      <stop
         offset="1"
         stop-color="#8D8D8D"
         id="stop53" />
    </linearGradient>
    <linearGradient
       id="paint10_linear_214_578"
       x1="152.82899"
       y1="83"
       x2="152.82899"
       y2="114.238"
       gradientUnits="userSpaceOnUse"
       gradientTransform="matrix(0.80418297,0,0,0.80418297,30.272623,22.787409)">
      <stop
         stop-color="white"
         id="stop54" />
      <stop
         offset="1"
         stop-color="#CACACA"
         id="stop55" />
    </linearGradient>
    <linearGradient
       id="paint11_linear_214_578"
       x1="150.82899"
       y1="83"
       x2="150.82899"
       y2="114.238"
       gradientUnits="userSpaceOnUse"
       gradientTransform="matrix(0.80418297,0,0,0.80418297,30.272623,22.787409)">
      <stop
         stop-color="white"
         id="stop56" />
      <stop
         offset="1"
         stop-color="#CACACA"
         id="stop57" />
    </linearGradient>
    <linearGradient
       id="paint12_linear_214_578"
       x1="153.396"
       y1="10.7383"
       x2="153.396"
       y2="78.738297"
       gradientUnits="userSpaceOnUse"
       gradientTransform="matrix(0.80418297,0,0,0.80418297,30.272623,22.787409)">
      <stop
         stop-color="#70AEF7"
         id="stop58" />
      <stop
         offset="1"
         stop-color="#4393F2"
         id="stop59" />
    </linearGradient>
    <linearGradient
       id="paint13_linear_214_578"
       x1="145"
       y1="233.5"
       x2="144.75"
       y2="276.5"
       gradientUnits="userSpaceOnUse"
       gradientTransform="matrix(0.80418297,0,0,0.80418297,30.272623,22.787409)">
      <stop
         stop-color="#A3CAEE"
         id="stop60" />
      <stop
         offset="0.737064"
         stop-color="#8FC0EC"
         id="stop61" />
      <stop
         offset="1"
         stop-color="#69A8E2"
         id="stop62" />
    </linearGradient>
    <radialGradient
       id="paint14_radial_214_578"
       cx="0"
       cy="0"
       r="1"
       gradientUnits="userSpaceOnUse"
       gradientTransform="matrix(45.034443,86.449935,-190.62249,99.301148,66.862948,89.132501)">
      <stop
         stop-color="#DDEFFF"
         id="stop63" />
      <stop
         offset="1"
         stop-color="#DDEFFF"
         stop-opacity="0"
         id="stop64" />
    </radialGradient>
    <linearGradient
       id="paint15_linear_214_578"
       x1="142"
       y1="233.5"
       x2="141.75"
       y2="276.5"
       gradientUnits="userSpaceOnUse"
       gradientTransform="matrix(0.80418297,0,0,0.80418297,30.272623,22.787409)">
      <stop
         stop-color="#A3CAEE"
         id="stop65" />
      <stop
         offset="0.737064"
         stop-color="#8FC0EC"
         id="stop66" />
      <stop
         offset="1"
         stop-color="#69A8E2"
         id="stop67" />
    </linearGradient>
    <radialGradient
       id="paint16_radial_214_578"
       cx="0"
       cy="0"
       r="1"
       gradientUnits="userSpaceOnUse"
       gradientTransform="matrix(45.034443,86.449935,-190.62249,99.301148,64.450399,89.132501)">
      <stop
         stop-color="#DDEFFF"
         id="stop68" />
      <stop
         offset="1"
         stop-color="#DDEFFF"
         stop-opacity="0"
         id="stop69" />
    </radialGradient>
    <radialGradient
       id="paint17_radial_214_578"
       cx="0"
       cy="0"
       r="1"
       gradientUnits="userSpaceOnUse"
       gradientTransform="matrix(0,59,-32.5765,0,94,140)">
      <stop
         stop-color="#605DAC"
         id="stop70" />
      <stop
         offset="1"
         stop-color="#272646"
         id="stop71" />
    </radialGradient>
    <radialGradient
       id="paint18_radial_214_578"
       cx="0"
       cy="0"
       r="1"
       gradientUnits="userSpaceOnUse"
       gradientTransform="matrix(0,59,-32.5765,0,176,140)">
      <stop
         stop-color="#605DAC"
         id="stop72" />
      <stop
         offset="1"
         stop-color="#272646"
         id="stop73" />
    </radialGradient>
    <radialGradient
       id="paint19_radial_214_578"
       cx="0"
       cy="0"
       r="1"
       gradientUnits="userSpaceOnUse"
       gradientTransform="matrix(0,33.5,-186.279,0,134.152,198.5)">
      <stop
         stop-color="#605DAC"
         id="stop74" />
      <stop
         offset="1"
         stop-color="#272646"
         id="stop75" />
    </radialGradient>
  </defs>
</svg>
